<svg width="20" height="20" viewBox="0 0 20 20" fill="none" xmlns="http://www.w3.org/2000/svg">
<path fill-rule="evenodd" clip-rule="evenodd" d="M5.44815 9.99993C5.44815 9.48031 5.5344 8.98206 5.68853 8.51481L2.99228 6.45593C2.46678 7.52281 2.17078 8.72506 2.17078 9.99993C2.17078 11.2738 2.46653 12.4751 2.99115 13.5414L5.6859 11.4785C5.53328 11.0134 5.44815 10.517 5.44815 9.99993Z" fill="#FBBC05"/>
<path fill-rule="evenodd" clip-rule="evenodd" d="M10.1821 5.27275C11.3109 5.27275 12.3306 5.67275 13.1317 6.32725L15.4622 4C14.0421 2.76363 12.2213 2 10.1821 2C7.01606 2 4.29506 3.8105 2.99219 6.456L5.68831 8.51487C6.30956 6.62912 8.08044 5.27275 10.1821 5.27275Z" fill="#EA4335"/>
<path fill-rule="evenodd" clip-rule="evenodd" d="M10.1821 14.7273C8.08056 14.7273 6.30969 13.3709 5.68844 11.4852L2.99219 13.5437C4.29506 16.1895 7.01606 18 10.1821 18C12.1361 18 14.0017 17.3062 15.4018 16.0062L12.8426 14.0277C12.1204 14.4825 11.2111 14.7273 10.1821 14.7273Z" fill="#34A853"/>
<path fill-rule="evenodd" clip-rule="evenodd" d="M17.8293 10C17.8293 9.52728 17.7564 9.01816 17.6471 8.54553H10.1821V11.6364H14.4791C14.2643 12.6903 13.6795 13.5004 12.8426 14.0276L15.4019 16.0061C16.8726 14.6411 17.8293 12.6076 17.8293 10Z" fill="#4285F4"/>
</svg>
