<svg width="105" height="28" viewBox="0 0 105 28" fill="none" xmlns="http://www.w3.org/2000/svg">
<g clip-path="url(#clip0)">
<path fill-rule="evenodd" clip-rule="evenodd" d="M19 23H9V19.192L14 12L18 17.754V13L22 0L26 13V23H19Z" fill="#C90CFF"/>
<path fill-rule="evenodd" clip-rule="evenodd" d="M7 16.767V23H4V16.767C2.72281 16.4049 1.61966 15.5931 0.89412 14.4814C0.168579 13.3697 -0.130393 12.0331 0.0523717 10.7183C0.235137 9.40338 0.887305 8.19898 1.88853 7.32729C2.88976 6.45561 4.17248 5.97546 5.5 5.97546C6.82751 5.97546 8.11023 6.45561 9.11146 7.32729C10.1127 8.19898 10.7649 9.40338 10.9476 10.7183C11.1304 12.0331 10.8314 13.3697 10.1059 14.4814C9.38033 15.5931 8.27719 16.4049 7 16.767Z" fill="#3FC658"/>
</g>
<path d="M49.2344 7.35938V17.6611C49.2344 19.3727 48.6973 20.7262 47.623 21.7217C46.556 22.7171 45.0951 23.2148 43.2402 23.2148C41.4141 23.2148 39.9639 22.7314 38.8896 21.7646C37.8154 20.7979 37.2676 19.4694 37.2461 17.7793V7.35938H40.4688V17.6826C40.4688 18.7067 40.7122 19.4551 41.1992 19.9277C41.6934 20.3932 42.3737 20.626 43.2402 20.626C45.0521 20.626 45.9723 19.6735 46.001 17.7686V7.35938H49.2344ZM55.2393 20.4971H60.9219V23H51.2754V21.1094L56.7432 13.8906H51.4365V11.377H60.75V13.2139L55.2393 20.4971ZM66.1426 23H63.0273V6.5H66.1426V23ZM75.4453 23C75.3021 22.7207 75.1982 22.3734 75.1338 21.958C74.3818 22.7959 73.4043 23.2148 72.2012 23.2148C71.0625 23.2148 70.1172 22.8854 69.3652 22.2266C68.6204 21.5677 68.248 20.737 68.248 19.7344C68.248 18.5026 68.7028 17.5573 69.6123 16.8984C70.529 16.2396 71.8503 15.9066 73.5762 15.8994H75.0049V15.2334C75.0049 14.6963 74.8652 14.2666 74.5859 13.9443C74.3138 13.6221 73.8805 13.4609 73.2861 13.4609C72.7633 13.4609 72.3516 13.5863 72.0508 13.8369C71.7572 14.0876 71.6104 14.4313 71.6104 14.8682H68.5059C68.5059 14.195 68.7135 13.5719 69.1289 12.999C69.5443 12.4261 70.1315 11.9785 70.8906 11.6562C71.6497 11.3268 72.502 11.1621 73.4473 11.1621C74.8796 11.1621 76.0146 11.5238 76.8525 12.2471C77.6976 12.9632 78.1201 13.973 78.1201 15.2764V20.3145C78.1273 21.4173 78.2812 22.2516 78.582 22.8174V23H75.4453ZM72.8779 20.8408C73.3363 20.8408 73.7588 20.7406 74.1455 20.54C74.5322 20.3324 74.8187 20.0566 75.0049 19.7129V17.7148H73.8447C72.2907 17.7148 71.4635 18.252 71.3633 19.3262L71.3525 19.5088C71.3525 19.8955 71.4886 20.2142 71.7607 20.4648C72.0329 20.7155 72.4053 20.8408 72.8779 20.8408ZM90.9785 17.2959C90.9785 19.1579 90.5811 20.6117 89.7861 21.6572C88.9912 22.6956 87.8812 23.2148 86.4561 23.2148C85.1956 23.2148 84.1895 22.7314 83.4375 21.7646L83.2979 23H80.5049V6.5H83.6094V12.4189C84.3255 11.5811 85.2673 11.1621 86.4346 11.1621C87.8525 11.1621 88.9626 11.6849 89.7646 12.7305C90.5739 13.7689 90.9785 15.2334 90.9785 17.124V17.2959ZM87.874 17.0703C87.874 15.8958 87.6878 15.04 87.3154 14.5029C86.943 13.9587 86.388 13.6865 85.6504 13.6865C84.6621 13.6865 83.9818 14.0911 83.6094 14.9004V19.4873C83.9889 20.3037 84.6764 20.7119 85.6719 20.7119C86.6745 20.7119 87.3333 20.2178 87.6484 19.2295C87.7988 18.7568 87.874 18.0371 87.874 17.0703ZM92.418 17.0811C92.418 15.9281 92.64 14.9004 93.084 13.998C93.528 13.0957 94.1654 12.3975 94.9961 11.9033C95.834 11.4092 96.8044 11.1621 97.9072 11.1621C99.4756 11.1621 100.754 11.6419 101.742 12.6016C102.738 13.5612 103.293 14.8646 103.407 16.5117L103.429 17.3066C103.429 19.0898 102.931 20.5221 101.936 21.6035C100.94 22.6777 99.6045 23.2148 97.9287 23.2148C96.2529 23.2148 94.9137 22.6777 93.9111 21.6035C92.9157 20.5293 92.418 19.0684 92.418 17.2207V17.0811ZM95.5225 17.3066C95.5225 18.4095 95.7301 19.2546 96.1455 19.8418C96.5609 20.4219 97.1553 20.7119 97.9287 20.7119C98.6807 20.7119 99.2679 20.4255 99.6904 19.8525C100.113 19.2725 100.324 18.3486 100.324 17.0811C100.324 15.9997 100.113 15.1618 99.6904 14.5674C99.2679 13.973 98.6735 13.6758 97.9072 13.6758C97.1481 13.6758 96.5609 13.973 96.1455 14.5674C95.7301 15.1546 95.5225 16.0677 95.5225 17.3066Z" fill="#111A22"/>
<defs>
<clipPath id="clip0">
<rect width="26" height="23" fill="white"/>
</clipPath>
</defs>
</svg>
